<?xml version="1.0" standalone="no"?>
<!DOCTYPE svg PUBLIC "-//W3C//DTD SVG 20010904//EN"
 "http://www.w3.org/TR/2001/REC-SVG-20010904/DTD/svg10.dtd">
<svg version="1.0" xmlns="http://www.w3.org/2000/svg"
 width="70.000000pt" height="70.000000pt" viewBox="0 0 70.000000 70.000000"
 preserveAspectRatio="xMidYMid meet">
<metadata>
Created by potrace 1.11, written by Peter Selinger 2001-2013
</metadata>
<g transform="translate(0.000000,70.000000) scale(0.100000,-0.100000)"
fill="#000000" stroke="none">
<path d="M50 630 c-22 -13 -3 -72 47 -146 25 -38 50 -72 55 -75 5 -3 4 -17 -2
-33 -13 -35 -13 -106 0 -106 6 0 10 17 10 38 0 20 4 44 10 52 7 12 14 9 36
-15 14 -17 40 -45 58 -63 l31 -34 -72 6 c-64 6 -135 24 -164 42 -6 4 -1 16 13
31 l23 24 -45 -19 c-25 -10 -46 -26 -48 -35 -6 -31 87 -61 223 -73 44 -3 81
-7 82 -9 2 -1 -16 -15 -40 -32 l-43 -31 -22 26 c-12 15 -22 30 -22 35 0 10
-20 9 -20 -2 0 -5 11 -23 25 -39 26 -32 25 -35 -18 -51 -36 -14 -51 6 -32 42
8 15 10 25 5 22 -19 -12 -44 -80 -41 -112 3 -30 113 19 196 88 26 21 50 39 53
39 3 0 23 -15 46 -34 63 -51 138 -94 171 -98 28 -3 30 -1 29 29 -1 17 -9 42
-19 55 l-17 23 7 -22 c10 -35 -1 -43 -38 -31 -31 11 -142 87 -135 93 2 1 34 5
71 9 73 7 75 5 34 -41 -11 -13 -17 -26 -13 -30 10 -10 56 43 56 65 0 11 9 18
23 18 12 1 41 7 64 13 96 26 89 67 -17 95 -24 6 -24 6 3 -9 15 -9 27 -19 27
-24 0 -13 -22 -29 -53 -36 -25 -7 -27 -5 -27 26 0 19 -4 49 -9 67 -9 30 -6 39
35 96 42 61 74 123 74 145 0 6 -9 15 -21 22 -49 26 -241 -108 -255 -179 -6
-30 -33 -50 -53 -38 -5 3 -12 18 -15 32 -11 40 -51 88 -110 129 -58 40 -136
67 -156 55z m129 -50 c22 -11 48 -31 60 -46 l21 -26 -42 -38 -43 -37 -37 61
c-37 59 -45 86 -31 99 11 12 32 8 72 -13z m414 8 c6 -18 -9 -55 -44 -109 l-29
-47 -35 35 c-19 19 -39 32 -45 28 -22 -14 -8 13 23 42 56 53 120 78 130 51z
m-317 -144 c-3 -14 -12 -37 -21 -51 l-17 -25 -24 23 -24 23 42 28 c24 15 44
28 46 28 1 0 0 -12 -2 -26z m213 -21 c11 -12 11 -17 -4 -33 -10 -11 -21 -20
-25 -20 -10 0 -40 64 -40 85 0 16 2 16 28 -1 15 -10 33 -24 41 -31z m-117 -42
c4 -1 12 -19 18 -42 11 -38 10 -42 -17 -65 l-27 -23 -27 25 c-25 24 -26 26
-12 68 14 43 14 43 65 37z m163 -48 c3 -21 8 -46 10 -55 2 -11 -3 -18 -13 -18
-10 -1 -44 -3 -77 -7 l-60 -6 59 62 c33 33 63 61 67 61 5 0 11 -17 14 -37z"/>
<path d="M392 119 c-12 -5 -47 -6 -77 -3 -55 5 -76 -8 -32 -20 28 -7 105 -6
136 3 19 5 21 8 10 18 -9 7 -22 8 -37 2z"/>
</g>
</svg>
